<?xml version="1.0" encoding="UTF-8" standalone="no"?>
<!DOCTYPE svg PUBLIC "-//W3C//DTD SVG 1.1//EN" "http://www.w3.org/Graphics/SVG/1.1/DTD/svg11.dtd">
<svg width="100%" height="100%" viewBox="0 0 1452 1448" version="1.1" xmlns="http://www.w3.org/2000/svg" xmlns:xlink="http://www.w3.org/1999/xlink" xml:space="preserve" xmlns:serif="http://www.serif.com/" style="fill-rule:evenodd;clip-rule:evenodd;stroke-linejoin:round;stroke-miterlimit:2;">
    <g transform="matrix(3.288836,0,0,3.288836,-3297.371541,-3681.831862)">
        <g id="AI-Content-Workbench--81-.png" serif:id="AI Content Workbench (81).png" transform="matrix(3.362418,0,0,3.362418,96.525081,352.434482)">
            <path d="M381.858,289.54C379.559,261.142 352.791,241.379 324.553,247.722C308.05,251.429 299.478,262.609 298.182,264.264C297.582,265.03 294.227,269.314 291.854,274.656C289.307,280.387 288.5,286.428 288.359,287.482C288.127,289.219 288.079,291.162 288.071,291.482C287.995,294.536 287.796,294.548 288.451,297.524C288.363,298.821 287.974,300.774 289.923,306.443C290.496,308.586 290.384,308.616 291.424,310.555C293.356,317.287 299.081,324.289 301.938,327.047C305.533,330.517 308.633,332.454 309.267,332.851C309.422,332.947 309.549,333.084 309.7,333.187C310.305,333.597 310.855,334.119 311.535,334.388C312.048,334.592 313.097,333.656 313.116,333.427C313.157,332.944 313.116,324.287 313.112,323.493C313.111,323.32 313.103,321.635 313.211,321.344C313.664,320.116 315.145,320.859 315.297,320.935C315.808,321.192 315.766,321.265 321.572,324.374C327.293,327.437 328.726,326.845 328.733,330.501C328.773,352.471 328.651,355.666 328.567,357.852C311.355,356.575 291.107,345.811 279.917,327.242C268.085,307.607 270.659,289.628 271.192,284.459C272.278,273.934 277.974,263.252 278.865,261.708C284.255,252.36 294.895,239.559 312.662,232.942C333.846,225.052 353.724,230.443 364.256,235.973C398.189,253.789 399.391,287.624 399.476,288.502C400.695,301.157 398.055,324.274 377.397,342.38C366.796,351.671 352.473,357.46 341.422,357.824C341.558,356.727 341.726,356.758 341.713,355.486C341.703,354.367 341.774,354.387 341.691,341.501C341.607,328.469 341.733,328.316 342.547,327.549C343.015,327.107 343.113,327.263 349.606,323.691C355.028,320.709 354.951,320.561 355.464,320.402C357.799,319.68 357.437,321.06 357.4,323.502C357.388,324.306 357.253,333.172 357.33,333.55C357.703,335.396 359.561,334.019 359.716,333.904C364.494,330.361 367.358,329.281 373.691,320.631C378.078,314.638 377.622,313.142 377.721,312.789C378.019,312.378 378.318,311.967 378.617,311.556C378.7,311.316 379.65,308.553 379.65,308.553C379.728,308.257 379.697,307.939 379.781,307.646C379.818,307.517 379.983,307.445 380.007,307.314C380.057,307.03 379.887,307.048 379.938,306.761C380.195,306.199 380.347,306.267 381.132,303.401C382.036,300.097 382.099,298.071 382.156,295.546C382.261,292.521 382.297,292.526 381.858,289.54Z" style="fill:rgb(26,51,71);"/>
            <path d="M381.858,289.54C381.434,289.906 381.097,290.366 380.673,290.732C380.549,290.839 377.915,291.58 378.455,293.505C378.548,293.836 378.695,294.19 378.966,294.399C379.06,294.472 379.184,294.093 380.372,294.846C380.456,294.899 380.512,295 380.607,295.026C381.303,295.217 381.318,295.066 381.99,295.292C382.086,295.324 382.06,295.514 382.156,295.546C382.099,298.071 382.036,300.097 381.132,303.401C380.347,306.267 380.195,306.199 379.938,306.761C379.852,306.766 378.939,307.246 377.539,306.897C377.403,306.864 376.153,306.553 375.889,306.325C375.077,305.625 375.036,304.88 374.999,304.817C377.937,298.313 379.528,298.264 378.193,296.608C378.069,296.454 377.843,296.411 377.709,296.266C377.431,295.968 377.107,294.792 374.509,295.532C373.964,295.687 372.194,296.191 368.916,299.879C366.648,302.431 367.163,304.981 369.521,304.709C369.855,304.671 370.159,304.482 370.491,304.436C372.186,304.201 372.126,304.63 373.283,305.909C373.454,306.532 373.223,307.608 375.504,308.494C376.19,308.761 376.125,308.864 376.832,309.109C378.12,309.555 378.451,309.265 378.905,310.567C379.018,310.891 378.504,311.232 378.617,311.556C378.318,311.967 378.019,312.378 377.721,312.789C374.503,310.946 374.569,310.808 373.488,310.561C370.637,309.908 370.467,313.779 366.533,314.645C363.577,315.295 362.406,312.457 359.197,315.115C355.658,318.046 355.163,316.745 351.494,316.673C348.083,316.606 343.057,317.439 340.266,315.96C337.626,314.56 337.494,314.655 334.461,315.306C331.73,315.892 330.128,315.8 329.79,316.657C329.368,317.729 331.302,319.398 332.506,319.276C333.286,319.197 335.533,317.861 336.327,318.666C337.848,320.207 333.835,322.563 331.517,322.253C327.801,321.755 328.746,318.975 324.493,319.007C320.26,319.038 319.888,317.06 316.339,315.955C315.52,315.7 311.689,315.031 311.425,314.549C310.679,313.186 312.402,312.723 312.572,312.677C315.034,312.015 315.062,312.219 317.494,311.484C319.858,310.769 320.841,311.397 321.759,310.853C323.088,310.065 322.781,309.387 321.356,308.818C317.6,307.319 313.794,309.265 309.587,308.188C309.095,308.063 304.885,306.986 303.619,306.04C303.507,305.956 303.496,305.784 303.402,305.681C301.385,303.496 301.309,303.572 298.64,302.266C298.233,302.067 297.833,301.854 297.427,301.655C295.023,300.475 294.922,300.706 292.65,299.261C290.202,297.703 288.496,297.535 288.451,297.524C287.796,294.548 287.995,294.536 288.071,291.482C288.079,291.162 288.127,289.219 288.359,287.482C288.5,286.428 289.307,280.387 291.854,274.656C294.227,269.314 297.582,265.03 298.182,264.264C299.478,262.609 308.05,251.429 324.553,247.722C352.791,241.379 379.559,261.142 381.858,289.54Z" style="fill:rgb(254,254,253);"/>
            <path d="M288.451,297.524C288.496,297.535 290.202,297.703 292.65,299.261C294.922,300.706 295.023,300.475 297.427,301.655C297.833,301.854 298.233,302.067 298.64,302.266C301.309,303.572 301.385,303.496 303.402,305.681C303.496,305.784 303.507,305.956 303.619,306.04C304.885,306.986 309.095,308.063 309.587,308.188C313.794,309.265 317.6,307.319 321.356,308.818C322.781,309.387 323.088,310.065 321.759,310.853C320.841,311.397 319.858,310.769 317.494,311.484C315.062,312.219 315.034,312.015 312.572,312.677C312.402,312.723 310.679,313.186 311.425,314.549C311.689,315.031 315.52,315.7 316.339,315.955C319.888,317.06 320.26,319.038 324.493,319.007C328.746,318.975 327.801,321.755 331.517,322.253C333.835,322.563 337.848,320.207 336.327,318.666C335.533,317.861 333.286,319.197 332.506,319.276C331.302,319.398 329.368,317.729 329.79,316.657C330.128,315.8 331.73,315.892 334.461,315.306C337.494,314.655 337.626,314.56 340.266,315.96C343.057,317.439 348.083,316.606 351.494,316.673C355.163,316.745 355.658,318.046 359.197,315.115C362.406,312.457 363.577,315.295 366.533,314.645C370.467,313.779 370.637,309.908 373.488,310.561C374.569,310.808 374.503,310.946 377.721,312.789C377.622,313.142 378.078,314.638 373.691,320.631C367.358,329.281 364.494,330.361 359.716,333.904C359.561,334.019 357.703,335.396 357.33,333.55C357.253,333.172 357.388,324.306 357.4,323.502C357.437,321.06 357.799,319.68 355.464,320.402C354.951,320.561 355.028,320.709 349.606,323.691C343.113,327.263 343.015,327.107 342.547,327.549C341.733,328.316 341.607,328.469 341.691,341.501C341.774,354.387 341.703,354.367 341.713,355.486C341.726,356.758 341.558,356.727 341.422,357.824C340.755,357.883 340.787,358.085 337.495,358.094C335.492,358.099 335.512,358.101 333.497,358.125C332.011,358.144 332.027,358.093 328.567,357.852C328.651,355.666 328.773,352.471 328.733,330.501C328.726,326.845 327.293,327.437 321.572,324.374C315.766,321.265 315.808,321.192 315.297,320.935C315.145,320.859 313.664,320.116 313.211,321.344C313.103,321.635 313.111,323.32 313.112,323.493C313.116,324.287 313.157,332.944 313.116,333.427C313.097,333.656 312.048,334.592 311.535,334.388C310.855,334.119 310.305,333.597 309.7,333.187C309.549,333.084 309.422,332.947 309.267,332.851C308.633,332.454 305.533,330.517 301.938,327.047C299.081,324.289 293.356,317.287 291.424,310.555C291.809,310.823 291.887,310.612 292.275,310.883C292.75,311.214 292.547,311.365 292.594,311.371C292.946,311.416 293.257,311.08 293.611,311.055C294.905,310.965 298.316,312.949 298.697,313.171C303.612,316.031 306.099,314.646 305.795,312.454C305.635,311.297 303.83,309.601 303.61,309.396C302.056,307.935 301.44,306.659 301.338,306.545C301.202,306.392 300.961,306.368 300.809,306.23C300.651,306.088 300.592,305.854 300.426,305.723C299.315,304.849 298.128,305.379 295.798,304.002C292.901,302.29 292.24,304.636 291.252,305.267C291.017,305.417 290.651,305.293 290.442,305.478C290.168,305.72 290.197,306.201 289.923,306.443C287.974,300.774 288.363,298.821 288.451,297.524Z" style="fill:rgb(238,125,57);"/>
            <path d="M289.923,306.443C290.197,306.201 290.168,305.72 290.442,305.478C290.651,305.293 291.017,305.417 291.252,305.267C292.24,304.636 292.901,302.29 295.798,304.002C298.128,305.379 299.315,304.849 300.426,305.723C300.592,305.854 300.651,306.088 300.809,306.23C300.961,306.368 301.202,306.392 301.338,306.545C301.44,306.659 302.056,307.935 303.61,309.396C303.83,309.601 305.635,311.297 305.795,312.454C306.099,314.646 303.612,316.031 298.697,313.171C298.316,312.949 294.905,310.965 293.611,311.055C293.257,311.08 292.946,311.416 292.594,311.371C292.547,311.365 292.75,311.214 292.275,310.883C291.887,310.612 291.809,310.823 291.424,310.555C290.384,308.616 290.496,308.586 289.923,306.443Z" style="fill:rgb(253,253,250);"/>
            <path d="M374.999,304.817C374.427,305.181 373.855,305.545 373.283,305.909C372.126,304.63 372.186,304.201 370.491,304.436C370.159,304.482 369.855,304.671 369.521,304.709C367.163,304.981 366.648,302.431 368.916,299.879C372.194,296.191 373.964,295.687 374.509,295.532C377.107,294.792 377.431,295.968 377.709,296.266C377.843,296.411 378.069,296.454 378.193,296.608C379.528,298.264 377.937,298.313 374.999,304.817Z" style="fill:rgb(237,130,56);"/>
            <path d="M349.358,308.252C349.679,308.095 352.36,306.788 353.518,306.619C353.732,306.588 355.296,306.36 356.201,306.928C357.794,307.929 355.862,309.555 355.69,309.7C353.406,311.622 351.12,312.712 350.691,312.917C347.249,314.558 344.34,313.669 343.993,313.156C342.655,311.176 346.921,309.525 349.358,308.252Z" style="fill:rgb(238,133,60);"/>
            <path d="M331.473,309.033C331.131,308.958 330.853,309.206 329.455,308.59C329.225,308.488 326.294,306.954 326.206,305.526C326.131,304.309 327.398,303.698 327.567,303.616C330.825,302.043 331.364,302.557 334.46,304.555C337.06,306.232 335.438,308.312 333.558,308.718C332.871,308.867 332.16,308.885 331.473,309.033Z" style="fill:rgb(236,127,51);"/>
            <path d="M374.999,304.817C375.036,304.88 375.077,305.625 375.889,306.325C376.153,306.553 377.403,306.864 377.539,306.897C378.939,307.246 379.852,306.766 379.938,306.761C379.887,307.048 380.057,307.03 380.007,307.314C379.983,307.445 379.818,307.517 379.781,307.646C379.697,307.939 379.728,308.257 379.65,308.553C379.65,308.553 378.7,311.316 378.617,311.556C378.504,311.232 379.018,310.891 378.905,310.567C378.451,309.265 378.12,309.555 376.832,309.109C376.125,308.864 376.19,308.761 375.504,308.494C373.223,307.608 373.454,306.532 373.283,305.909C373.855,305.545 374.427,305.181 374.999,304.817Z" style="fill:rgb(231,183,148);"/>
            <path d="M381.858,289.54C382.297,292.526 382.261,292.521 382.156,295.546C382.06,295.514 382.086,295.324 381.99,295.292C381.318,295.066 381.303,295.217 380.607,295.026C380.512,295 380.456,294.899 380.372,294.846C379.184,294.093 379.06,294.472 378.966,294.399C378.695,294.19 378.548,293.836 378.455,293.505C377.915,291.58 380.549,290.839 380.673,290.732C381.097,290.366 381.434,289.906 381.858,289.54Z" style="fill:rgb(227,131,76);"/>
            <path d="M338.513,348.291C338.223,348.203 337.896,348.301 337.606,348.214C336.57,347.9 336.138,345.892 337.44,345.378C337.593,345.318 338.727,344.87 339.489,345.544C340.835,346.734 339.671,346.906 338.513,348.291Z" style="fill:rgb(219,77,48);"/>
        </g>
    </g>
</svg>
